<svg xmlns="http://www.w3.org/2000/svg" xmlns:xlink="http://www.w3.org/1999/xlink" width="100" zoomAndPan="magnify" viewBox="0 0 75 30.000001" height="40" preserveAspectRatio="xMidYMid meet" version="1.0"><defs><g/><clipPath id="223f9eeead"><path d="M 15.589844 0 L 70.542969 0 L 70.542969 20.289062 L 15.589844 20.289062 Z M 15.589844 0 " clip-rule="nonzero"/></clipPath></defs><g clip-path="url(#223f9eeead)"><path fill="#1f1e1e" d="M 18.683594 16.3125 L 29.230469 9.742188 L 32.097656 10.433594 L 38.347656 3.539062 L 45.609375 0 L 53.542969 5.746094 L 59.855469 7.765625 L 70.378906 20.449219 L 62.472656 15.714844 L 62.015625 17.921875 L 55.488281 11.488281 L 52.742188 14.476562 L 52.742188 10.082031 L 45.148438 5.101562 L 42.738281 3.492188 L 39.222656 11.070312 L 36.03125 10.226562 L 32.914062 15.578125 L 27.0625 14.660156 L 15.601562 20.128906 L 18.683594 16.3125 " fill-opacity="1" fill-rule="nonzero"/></g><g fill="#fd8204" fill-opacity="1"><g transform="translate(1.447626, 24.117887)"><g><path d="M 0.59375 -0.03125 C 0.738281 -0.957031 0.8125 -1.953125 0.8125 -3.015625 C 0.8125 -4.078125 0.738281 -5.117188 0.59375 -6.140625 C 1.132812 -6.171875 1.628906 -6.226562 2.078125 -6.3125 C 2.535156 -6.40625 2.910156 -6.523438 3.203125 -6.671875 C 3.078125 -6.191406 2.976562 -5.757812 2.90625 -5.375 C 2.84375 -5 2.796875 -4.582031 2.765625 -4.125 L 2.9375 -4.125 C 3.09375 -4.601562 3.289062 -5.023438 3.53125 -5.390625 C 3.769531 -5.765625 4.066406 -6.0625 4.421875 -6.28125 C 4.773438 -6.507812 5.191406 -6.625 5.671875 -6.625 C 6.160156 -6.625 6.554688 -6.519531 6.859375 -6.3125 C 7.160156 -6.101562 7.390625 -5.828125 7.546875 -5.484375 C 7.703125 -5.140625 7.796875 -4.765625 7.828125 -4.359375 L 7.96875 -4.359375 C 8.070312 -4.734375 8.242188 -5.09375 8.484375 -5.4375 C 8.734375 -5.78125 9.039062 -6.0625 9.40625 -6.28125 C 9.769531 -6.507812 10.1875 -6.625 10.65625 -6.625 C 11.144531 -6.625 11.550781 -6.5 11.875 -6.25 C 12.207031 -6.007812 12.457031 -5.6875 12.625 -5.28125 C 12.800781 -4.875 12.898438 -4.421875 12.921875 -3.921875 C 12.921875 -3.734375 12.921875 -3.484375 12.921875 -3.171875 C 12.921875 -2.859375 12.921875 -2.519531 12.921875 -2.15625 C 12.929688 -1.789062 12.953125 -1.421875 12.984375 -1.046875 C 13.023438 -0.679688 13.085938 -0.34375 13.171875 -0.03125 L 10.671875 -0.03125 C 10.734375 -0.457031 10.769531 -0.882812 10.78125 -1.3125 C 10.789062 -1.738281 10.796875 -2.171875 10.796875 -2.609375 C 10.796875 -4.085938 10.332031 -4.828125 9.40625 -4.828125 C 8.5 -4.828125 8.046875 -4.085938 8.046875 -2.609375 C 8.046875 -2.117188 8.054688 -1.632812 8.078125 -1.15625 C 8.109375 -0.6875 8.15625 -0.3125 8.21875 -0.03125 L 5.703125 -0.03125 C 5.765625 -0.457031 5.796875 -0.882812 5.796875 -1.3125 C 5.804688 -1.738281 5.8125 -2.171875 5.8125 -2.609375 C 5.8125 -4.085938 5.363281 -4.828125 4.46875 -4.828125 C 3.53125 -4.828125 3.0625 -4.085938 3.0625 -2.609375 C 3.0625 -2.171875 3.066406 -1.734375 3.078125 -1.296875 C 3.097656 -0.867188 3.132812 -0.4375 3.1875 0 Z M 0.59375 -0.03125 "/></g></g></g><g fill="#fd8204" fill-opacity="1"><g transform="translate(14.433676, 24.117887)"><g><path d="M 8.40625 -2.484375 C 8.375 -2.304688 8.347656 -2.097656 8.328125 -1.859375 C 8.316406 -1.628906 8.316406 -1.398438 8.328125 -1.171875 C 8.347656 -0.941406 8.375 -0.738281 8.40625 -0.5625 C 7.90625 -0.3125 7.335938 -0.125 6.703125 0 C 6.066406 0.125 5.425781 0.1875 4.78125 0.1875 C 3.3125 0.1875 2.203125 -0.109375 1.453125 -0.703125 C 0.703125 -1.304688 0.328125 -2.140625 0.328125 -3.203125 C 0.328125 -3.921875 0.488281 -4.53125 0.8125 -5.03125 C 1.132812 -5.539062 1.59375 -5.929688 2.1875 -6.203125 C 2.78125 -6.484375 3.484375 -6.625 4.296875 -6.625 C 4.910156 -6.625 5.476562 -6.539062 6 -6.375 C 6.53125 -6.21875 6.984375 -5.976562 7.359375 -5.65625 C 7.734375 -5.34375 8.007812 -4.957031 8.1875 -4.5 C 8.375 -4.039062 8.429688 -3.507812 8.359375 -2.90625 C 7.003906 -2.9375 5.84375 -2.953125 4.875 -2.953125 C 3.914062 -2.953125 3.1875 -2.9375 2.6875 -2.90625 C 2.769531 -2.445312 2.988281 -2.078125 3.34375 -1.796875 C 3.707031 -1.523438 4.253906 -1.398438 4.984375 -1.421875 C 5.378906 -1.421875 5.789062 -1.460938 6.21875 -1.546875 C 6.644531 -1.640625 7.050781 -1.765625 7.4375 -1.921875 C 7.820312 -2.078125 8.144531 -2.265625 8.40625 -2.484375 Z M 4.296875 -5.125 C 3.804688 -5.125 3.414062 -4.992188 3.125 -4.734375 C 2.832031 -4.472656 2.671875 -4.085938 2.640625 -3.578125 C 3.097656 -3.554688 3.632812 -3.546875 4.25 -3.546875 C 4.863281 -3.546875 5.460938 -3.546875 6.046875 -3.546875 C 5.972656 -4.054688 5.789062 -4.445312 5.5 -4.71875 C 5.207031 -4.988281 4.804688 -5.125 4.296875 -5.125 Z M 4.296875 -5.125 "/></g></g></g><g fill="#fd8204" fill-opacity="1"><g transform="translate(22.642785, 24.117887)"><g><path d="M 3.71875 -5.03125 C 3.707031 -4.695312 3.695312 -4.378906 3.6875 -4.078125 C 3.6875 -3.773438 3.679688 -3.488281 3.671875 -3.21875 C 3.660156 -2.757812 3.71875 -2.40625 3.84375 -2.15625 C 3.96875 -1.90625 4.140625 -1.734375 4.359375 -1.640625 C 4.578125 -1.546875 4.816406 -1.5 5.078125 -1.5 C 5.367188 -1.5 5.664062 -1.53125 5.96875 -1.59375 C 6.269531 -1.664062 6.546875 -1.726562 6.796875 -1.78125 C 6.742188 -1.519531 6.707031 -1.253906 6.6875 -0.984375 C 6.675781 -0.722656 6.703125 -0.46875 6.765625 -0.21875 C 6.441406 -0.125 6.078125 -0.0390625 5.671875 0.03125 C 5.273438 0.113281 4.867188 0.15625 4.453125 0.15625 C 3.972656 0.15625 3.519531 0.0859375 3.09375 -0.046875 C 2.664062 -0.191406 2.316406 -0.429688 2.046875 -0.765625 C 1.785156 -1.109375 1.65625 -1.582031 1.65625 -2.1875 C 1.65625 -2.40625 1.648438 -2.769531 1.640625 -3.28125 C 1.640625 -3.800781 1.628906 -4.367188 1.609375 -4.984375 C 1.328125 -4.972656 1.039062 -4.953125 0.75 -4.921875 C 0.46875 -4.898438 0.195312 -4.875 -0.0625 -4.84375 C -0.03125 -5.050781 -0.015625 -5.304688 -0.015625 -5.609375 C -0.015625 -5.910156 -0.03125 -6.164062 -0.0625 -6.375 C 0.1875 -6.34375 0.445312 -6.316406 0.71875 -6.296875 C 0.988281 -6.273438 1.269531 -6.253906 1.5625 -6.234375 C 1.539062 -6.585938 1.519531 -6.921875 1.5 -7.234375 C 1.476562 -7.554688 1.445312 -7.835938 1.40625 -8.078125 C 1.875 -8.128906 2.304688 -8.195312 2.703125 -8.28125 C 3.109375 -8.363281 3.484375 -8.492188 3.828125 -8.671875 C 3.828125 -8.285156 3.816406 -7.878906 3.796875 -7.453125 C 3.785156 -7.023438 3.769531 -6.601562 3.75 -6.1875 C 4.28125 -6.195312 4.804688 -6.210938 5.328125 -6.234375 C 5.847656 -6.265625 6.335938 -6.3125 6.796875 -6.375 C 6.765625 -6.082031 6.75 -5.828125 6.75 -5.609375 C 6.75 -5.398438 6.765625 -5.144531 6.796875 -4.84375 C 6.328125 -4.90625 5.832031 -4.945312 5.3125 -4.96875 C 4.789062 -5 4.257812 -5.019531 3.71875 -5.03125 Z M 3.71875 -5.03125 "/></g></g></g><g fill="#fd8204" fill-opacity="1"><g transform="translate(28.964706, 24.117887)"><g><path d="M 3.265625 0 L 0.59375 0 C 0.757812 -0.9375 0.84375 -1.925781 0.84375 -2.96875 C 0.84375 -4.019531 0.757812 -5.0625 0.59375 -6.09375 C 1.050781 -6.125 1.519531 -6.1875 2 -6.28125 C 2.476562 -6.375 2.875 -6.488281 3.1875 -6.625 C 3.070312 -6.144531 2.988281 -5.710938 2.9375 -5.328125 C 2.882812 -4.941406 2.84375 -4.523438 2.8125 -4.078125 L 3.015625 -4.078125 C 3.234375 -4.742188 3.515625 -5.269531 3.859375 -5.65625 C 4.203125 -6.050781 4.566406 -6.316406 4.953125 -6.453125 C 5.335938 -6.585938 5.703125 -6.597656 6.046875 -6.484375 C 5.953125 -6.191406 5.90625 -5.835938 5.90625 -5.421875 C 5.90625 -5.015625 5.953125 -4.601562 6.046875 -4.1875 C 5.546875 -4.332031 5.117188 -4.40625 4.765625 -4.40625 C 4.328125 -4.40625 3.976562 -4.316406 3.71875 -4.140625 C 3.46875 -3.960938 3.289062 -3.722656 3.1875 -3.421875 C 3.082031 -3.117188 3.03125 -2.773438 3.03125 -2.390625 C 3.03125 -1.972656 3.039062 -1.570312 3.0625 -1.1875 C 3.082031 -0.8125 3.148438 -0.414062 3.265625 0 Z M 3.265625 0 "/></g></g></g><g fill="#fd8204" fill-opacity="1"><g transform="translate(34.472778, 24.117887)"><g><path d="M 4.515625 0.1875 C 3.191406 0.1875 2.160156 -0.109375 1.421875 -0.703125 C 0.691406 -1.304688 0.328125 -2.140625 0.328125 -3.203125 C 0.328125 -4.273438 0.691406 -5.109375 1.421875 -5.703125 C 2.160156 -6.304688 3.191406 -6.609375 4.515625 -6.609375 C 5.828125 -6.609375 6.847656 -6.304688 7.578125 -5.703125 C 8.316406 -5.109375 8.6875 -4.273438 8.6875 -3.203125 C 8.6875 -2.140625 8.316406 -1.304688 7.578125 -0.703125 C 6.847656 -0.109375 5.828125 0.1875 4.515625 0.1875 Z M 4.515625 -1.21875 C 5.097656 -1.21875 5.550781 -1.390625 5.875 -1.734375 C 6.207031 -2.078125 6.375 -2.566406 6.375 -3.203125 C 6.375 -3.785156 6.207031 -4.242188 5.875 -4.578125 C 5.550781 -4.921875 5.097656 -5.09375 4.515625 -5.09375 C 3.921875 -5.09375 3.460938 -4.921875 3.140625 -4.578125 C 2.816406 -4.242188 2.65625 -3.785156 2.65625 -3.203125 C 2.65625 -2.566406 2.816406 -2.078125 3.140625 -1.734375 C 3.460938 -1.390625 3.921875 -1.21875 4.515625 -1.21875 Z M 4.515625 -1.21875 "/></g></g></g><g fill="#7f9318" fill-opacity="1"><g transform="translate(42.790378, 24.117887)"><g><path d="M 5.03125 -7.4375 C 4.9375 -7.4375 4.78125 -7.4375 4.5625 -7.4375 C 4.351562 -7.445312 4.132812 -7.445312 3.90625 -7.4375 C 3.6875 -7.4375 3.515625 -7.4375 3.390625 -7.4375 C 3.554688 -7.632812 3.726562 -7.851562 3.90625 -8.09375 C 4.082031 -8.34375 4.253906 -8.59375 4.421875 -8.84375 C 4.585938 -9.09375 4.726562 -9.316406 4.84375 -9.515625 C 4.988281 -9.484375 5.191406 -9.457031 5.453125 -9.4375 C 5.710938 -9.425781 5.988281 -9.421875 6.28125 -9.421875 C 6.570312 -9.421875 6.847656 -9.425781 7.109375 -9.4375 C 7.367188 -9.457031 7.578125 -9.484375 7.734375 -9.515625 C 7.460938 -9.316406 7.15625 -9.09375 6.8125 -8.84375 C 6.46875 -8.59375 6.140625 -8.34375 5.828125 -8.09375 C 5.515625 -7.851562 5.25 -7.632812 5.03125 -7.4375 Z M 8.453125 0 L 6.15625 0 C 6.082031 -0.238281 6.023438 -0.472656 5.984375 -0.703125 C 5.953125 -0.941406 5.925781 -1.175781 5.90625 -1.40625 C 5.695312 -1.070312 5.460938 -0.785156 5.203125 -0.546875 C 4.953125 -0.304688 4.648438 -0.125 4.296875 0 C 3.953125 0.125 3.523438 0.1875 3.015625 0.1875 C 2.148438 0.1875 1.5 0.015625 1.0625 -0.328125 C 0.625 -0.671875 0.40625 -1.09375 0.40625 -1.59375 C 0.40625 -2.15625 0.707031 -2.613281 1.3125 -2.96875 C 1.914062 -3.320312 2.832031 -3.5 4.0625 -3.5 L 5.90625 -3.5 C 5.875 -3.8125 5.800781 -4.078125 5.6875 -4.296875 C 5.570312 -4.523438 5.378906 -4.703125 5.109375 -4.828125 C 4.847656 -4.960938 4.472656 -5.03125 3.984375 -5.03125 C 3.304688 -5.03125 2.664062 -4.910156 2.0625 -4.671875 C 1.457031 -4.441406 0.984375 -4.148438 0.640625 -3.796875 C 0.679688 -3.984375 0.707031 -4.203125 0.71875 -4.453125 C 0.726562 -4.710938 0.726562 -4.96875 0.71875 -5.21875 C 0.707031 -5.46875 0.679688 -5.671875 0.640625 -5.828125 C 1.097656 -6.023438 1.625 -6.203125 2.21875 -6.359375 C 2.8125 -6.515625 3.503906 -6.59375 4.296875 -6.59375 C 5.066406 -6.59375 5.734375 -6.5 6.296875 -6.3125 C 6.867188 -6.132812 7.304688 -5.828125 7.609375 -5.390625 C 7.910156 -4.960938 8.0625 -4.382812 8.0625 -3.65625 C 8.0625 -2.882812 8.085938 -2.195312 8.140625 -1.59375 C 8.203125 -1 8.304688 -0.46875 8.453125 0 Z M 4.125 -1.296875 C 4.425781 -1.296875 4.726562 -1.332031 5.03125 -1.40625 C 5.332031 -1.476562 5.625 -1.585938 5.90625 -1.734375 C 5.90625 -1.898438 5.90625 -2.066406 5.90625 -2.234375 C 5.90625 -2.398438 5.90625 -2.5625 5.90625 -2.71875 L 5.90625 -2.953125 L 5.265625 -2.953125 C 4.429688 -2.953125 3.8125 -2.878906 3.40625 -2.734375 C 3.007812 -2.585938 2.8125 -2.367188 2.8125 -2.078125 C 2.8125 -1.847656 2.914062 -1.660156 3.125 -1.515625 C 3.332031 -1.367188 3.664062 -1.296875 4.125 -1.296875 Z M 4.125 -1.296875 "/></g></g></g><g fill="#7f9318" fill-opacity="1"><g transform="translate(50.952308, 24.117887)"><g><path d="M 5.6875 -6.375 C 6.082031 -6.289062 6.488281 -6.242188 6.90625 -6.234375 C 7.320312 -6.234375 7.753906 -6.28125 8.203125 -6.375 C 7.640625 -5.28125 7.15625 -4.21875 6.75 -3.1875 C 6.34375 -2.164062 5.953125 -1.101562 5.578125 0 L 2.625 0 C 2.257812 -1.082031 1.867188 -2.132812 1.453125 -3.15625 C 1.046875 -4.1875 0.5625 -5.257812 0 -6.375 C 0.46875 -6.289062 0.914062 -6.242188 1.34375 -6.234375 C 1.78125 -6.234375 2.191406 -6.28125 2.578125 -6.375 C 2.734375 -5.894531 2.894531 -5.375 3.0625 -4.8125 C 3.226562 -4.25 3.398438 -3.671875 3.578125 -3.078125 C 3.753906 -2.484375 3.941406 -1.914062 4.140625 -1.375 C 4.328125 -1.914062 4.503906 -2.484375 4.671875 -3.078125 C 4.847656 -3.671875 5.019531 -4.25 5.1875 -4.8125 C 5.363281 -5.375 5.53125 -5.894531 5.6875 -6.375 Z M 5.6875 -6.375 "/></g></g></g><g fill="#7f9318" fill-opacity="1"><g transform="translate(58.441929, 24.117887)"><g><path d="M 1.8125 -7.109375 C 0.875 -7.109375 0.40625 -7.425781 0.40625 -8.0625 C 0.40625 -8.6875 0.875 -9 1.8125 -9 C 2.832031 -9 3.34375 -8.6875 3.34375 -8.0625 C 3.34375 -7.425781 2.832031 -7.109375 1.8125 -7.109375 Z M 0.609375 -6.375 C 1.023438 -6.289062 1.429688 -6.242188 1.828125 -6.234375 C 2.234375 -6.234375 2.644531 -6.28125 3.0625 -6.375 C 2.957031 -5.28125 2.90625 -4.21875 2.90625 -3.1875 C 2.90625 -2.164062 2.957031 -1.101562 3.0625 0 L 0.609375 0 C 0.703125 -1.09375 0.75 -2.148438 0.75 -3.171875 C 0.75 -4.203125 0.703125 -5.269531 0.609375 -6.375 Z M 0.609375 -6.375 "/></g></g></g><g fill="#7f9318" fill-opacity="1"><g transform="translate(61.484867, 24.117887)"><g><path d="M 0.53125 -8.953125 C 0.945312 -8.972656 1.367188 -9.019531 1.796875 -9.09375 C 2.222656 -9.164062 2.644531 -9.28125 3.0625 -9.4375 C 2.988281 -9 2.929688 -8.460938 2.890625 -7.828125 C 2.847656 -7.191406 2.820312 -6.515625 2.8125 -5.796875 C 2.800781 -5.078125 2.800781 -4.351562 2.8125 -3.625 C 2.820312 -2.90625 2.835938 -2.226562 2.859375 -1.59375 C 2.890625 -0.96875 2.929688 -0.4375 2.984375 0 L 0.53125 0 C 0.582031 -0.4375 0.617188 -0.957031 0.640625 -1.5625 C 0.671875 -2.175781 0.6875 -2.828125 0.6875 -3.515625 C 0.695312 -4.203125 0.695312 -4.882812 0.6875 -5.5625 C 0.6875 -6.25 0.671875 -6.882812 0.640625 -7.46875 C 0.617188 -8.0625 0.582031 -8.554688 0.53125 -8.953125 Z M 0.53125 -8.953125 "/></g></g></g><g fill="#7f9318" fill-opacity="1"><g transform="translate(64.362677, 24.117887)"><g><path d="M 8.453125 0 L 6.15625 0 C 6.082031 -0.238281 6.023438 -0.472656 5.984375 -0.703125 C 5.953125 -0.941406 5.925781 -1.175781 5.90625 -1.40625 C 5.695312 -1.070312 5.460938 -0.785156 5.203125 -0.546875 C 4.953125 -0.304688 4.648438 -0.125 4.296875 0 C 3.953125 0.125 3.523438 0.1875 3.015625 0.1875 C 2.148438 0.1875 1.5 0.015625 1.0625 -0.328125 C 0.625 -0.671875 0.40625 -1.09375 0.40625 -1.59375 C 0.40625 -2.15625 0.707031 -2.613281 1.3125 -2.96875 C 1.914062 -3.320312 2.832031 -3.5 4.0625 -3.5 L 5.90625 -3.5 C 5.875 -3.8125 5.800781 -4.078125 5.6875 -4.296875 C 5.570312 -4.523438 5.378906 -4.703125 5.109375 -4.828125 C 4.847656 -4.960938 4.472656 -5.03125 3.984375 -5.03125 C 3.304688 -5.03125 2.664062 -4.910156 2.0625 -4.671875 C 1.457031 -4.441406 0.984375 -4.148438 0.640625 -3.796875 C 0.679688 -3.984375 0.707031 -4.203125 0.71875 -4.453125 C 0.726562 -4.710938 0.726562 -4.96875 0.71875 -5.21875 C 0.707031 -5.46875 0.679688 -5.671875 0.640625 -5.828125 C 1.097656 -6.023438 1.625 -6.203125 2.21875 -6.359375 C 2.8125 -6.515625 3.503906 -6.59375 4.296875 -6.59375 C 5.066406 -6.59375 5.734375 -6.5 6.296875 -6.3125 C 6.867188 -6.132812 7.304688 -5.828125 7.609375 -5.390625 C 7.910156 -4.960938 8.0625 -4.382812 8.0625 -3.65625 C 8.0625 -2.882812 8.085938 -2.195312 8.140625 -1.59375 C 8.203125 -1 8.304688 -0.46875 8.453125 0 Z M 4.125 -1.296875 C 4.425781 -1.296875 4.726562 -1.332031 5.03125 -1.40625 C 5.332031 -1.476562 5.625 -1.585938 5.90625 -1.734375 C 5.90625 -1.898438 5.90625 -2.066406 5.90625 -2.234375 C 5.90625 -2.398438 5.90625 -2.5625 5.90625 -2.71875 L 5.90625 -2.953125 L 5.265625 -2.953125 C 4.429688 -2.953125 3.8125 -2.878906 3.40625 -2.734375 C 3.007812 -2.585938 2.8125 -2.367188 2.8125 -2.078125 C 2.8125 -1.847656 2.914062 -1.660156 3.125 -1.515625 C 3.332031 -1.367188 3.664062 -1.296875 4.125 -1.296875 Z M 4.125 -1.296875 "/></g></g></g><g fill="#0a0a0a" fill-opacity="1"><g transform="translate(32.349501, 28.060624)"><g><path d="M 1.390625 -0.25 L 1.390625 0 L 0.203125 0 L 0.203125 -1.5625 L 1.359375 -1.5625 L 1.359375 -1.328125 L 0.5 -1.328125 L 0.5 -0.90625 L 1.25 -0.90625 L 1.25 -0.671875 L 0.5 -0.671875 L 0.5 -0.25 Z M 1.390625 -0.25 "/></g></g></g><g fill="#0a0a0a" fill-opacity="1"><g transform="translate(33.742488, 28.060624)"><g><path d="M 0.6875 0.015625 C 0.570312 0.015625 0.457031 0 0.34375 -0.03125 C 0.226562 -0.0625 0.140625 -0.109375 0.078125 -0.171875 L 0.171875 -0.390625 C 0.242188 -0.335938 0.320312 -0.296875 0.40625 -0.265625 C 0.5 -0.234375 0.59375 -0.21875 0.6875 -0.21875 C 0.8125 -0.21875 0.898438 -0.234375 0.953125 -0.265625 C 1.015625 -0.304688 1.046875 -0.359375 1.046875 -0.421875 C 1.046875 -0.460938 1.023438 -0.5 0.984375 -0.53125 C 0.953125 -0.5625 0.910156 -0.582031 0.859375 -0.59375 C 0.816406 -0.613281 0.753906 -0.632812 0.671875 -0.65625 C 0.546875 -0.6875 0.445312 -0.710938 0.375 -0.734375 C 0.300781 -0.765625 0.238281 -0.8125 0.1875 -0.875 C 0.132812 -0.9375 0.109375 -1.019531 0.109375 -1.125 C 0.109375 -1.207031 0.128906 -1.285156 0.171875 -1.359375 C 0.222656 -1.429688 0.296875 -1.488281 0.390625 -1.53125 C 0.484375 -1.570312 0.597656 -1.59375 0.734375 -1.59375 C 0.835938 -1.59375 0.929688 -1.578125 1.015625 -1.546875 C 1.109375 -1.523438 1.191406 -1.492188 1.265625 -1.453125 L 1.171875 -1.21875 C 1.097656 -1.257812 1.023438 -1.289062 0.953125 -1.3125 C 0.878906 -1.332031 0.804688 -1.34375 0.734375 -1.34375 C 0.617188 -1.34375 0.535156 -1.320312 0.484375 -1.28125 C 0.429688 -1.25 0.40625 -1.203125 0.40625 -1.140625 C 0.40625 -1.085938 0.421875 -1.046875 0.453125 -1.015625 C 0.484375 -0.992188 0.519531 -0.972656 0.5625 -0.953125 C 0.613281 -0.941406 0.679688 -0.925781 0.765625 -0.90625 C 0.878906 -0.875 0.972656 -0.84375 1.046875 -0.8125 C 1.128906 -0.78125 1.195312 -0.734375 1.25 -0.671875 C 1.300781 -0.617188 1.328125 -0.539062 1.328125 -0.4375 C 1.328125 -0.351562 1.300781 -0.273438 1.25 -0.203125 C 1.207031 -0.140625 1.140625 -0.0859375 1.046875 -0.046875 C 0.953125 -0.00390625 0.832031 0.015625 0.6875 0.015625 Z M 0.6875 0.015625 "/></g></g></g><g fill="#0a0a0a" fill-opacity="1"><g transform="translate(35.043948, 28.060624)"><g><path d="M 0.53125 -1.3125 L 0.015625 -1.3125 L 0.015625 -1.5625 L 1.34375 -1.5625 L 1.34375 -1.3125 L 0.8125 -1.3125 L 0.8125 0 L 0.53125 0 Z M 0.53125 -1.3125 "/></g></g></g><g fill="#0a0a0a" fill-opacity="1"><g transform="translate(36.285135, 28.060624)"><g><path d="M 0.265625 0.015625 C 0.222656 0.015625 0.179688 0 0.140625 -0.03125 C 0.109375 -0.0703125 0.09375 -0.117188 0.09375 -0.171875 C 0.09375 -0.222656 0.109375 -0.265625 0.140625 -0.296875 C 0.171875 -0.335938 0.210938 -0.359375 0.265625 -0.359375 C 0.316406 -0.359375 0.359375 -0.335938 0.390625 -0.296875 C 0.429688 -0.265625 0.453125 -0.222656 0.453125 -0.171875 C 0.453125 -0.117188 0.429688 -0.0703125 0.390625 -0.03125 C 0.359375 0 0.316406 0.015625 0.265625 0.015625 Z M 0.265625 0.015625 "/></g></g></g><g fill="#0a0a0a" fill-opacity="1"><g transform="translate(36.727142, 28.060624)"><g/></g></g><g fill="#0a0a0a" fill-opacity="1"><g transform="translate(37.240584, 28.060624)"><g><path d="M 1.234375 -0.25 L 1.234375 0 L 0.078125 0 L 0.078125 -0.1875 L 0.703125 -0.78125 C 0.765625 -0.851562 0.804688 -0.910156 0.828125 -0.953125 C 0.859375 -1.003906 0.875 -1.054688 0.875 -1.109375 C 0.875 -1.179688 0.847656 -1.234375 0.796875 -1.265625 C 0.753906 -1.304688 0.6875 -1.328125 0.59375 -1.328125 C 0.425781 -1.328125 0.300781 -1.273438 0.21875 -1.171875 L 0.015625 -1.328125 C 0.078125 -1.410156 0.160156 -1.472656 0.265625 -1.515625 C 0.367188 -1.566406 0.484375 -1.59375 0.609375 -1.59375 C 0.773438 -1.59375 0.910156 -1.550781 1.015625 -1.46875 C 1.117188 -1.382812 1.171875 -1.273438 1.171875 -1.140625 C 1.171875 -1.054688 1.148438 -0.972656 1.109375 -0.890625 C 1.078125 -0.816406 1.007812 -0.734375 0.90625 -0.640625 L 0.5 -0.25 Z M 1.234375 -0.25 "/></g></g></g><g fill="#0a0a0a" fill-opacity="1"><g transform="translate(38.437125, 28.060624)"><g><path d="M 0.75 0.015625 C 0.625 0.015625 0.507812 -0.015625 0.40625 -0.078125 C 0.3125 -0.140625 0.234375 -0.226562 0.171875 -0.34375 C 0.117188 -0.46875 0.09375 -0.613281 0.09375 -0.78125 C 0.09375 -0.945312 0.117188 -1.085938 0.171875 -1.203125 C 0.234375 -1.328125 0.3125 -1.421875 0.40625 -1.484375 C 0.507812 -1.554688 0.625 -1.59375 0.75 -1.59375 C 0.875 -1.59375 0.984375 -1.554688 1.078125 -1.484375 C 1.179688 -1.421875 1.257812 -1.328125 1.3125 -1.203125 C 1.375 -1.085938 1.40625 -0.945312 1.40625 -0.78125 C 1.40625 -0.613281 1.375 -0.46875 1.3125 -0.34375 C 1.257812 -0.226562 1.179688 -0.140625 1.078125 -0.078125 C 0.984375 -0.015625 0.875 0.015625 0.75 0.015625 Z M 0.75 -0.234375 C 0.863281 -0.234375 0.953125 -0.273438 1.015625 -0.359375 C 1.078125 -0.453125 1.109375 -0.59375 1.109375 -0.78125 C 1.109375 -0.96875 1.078125 -1.101562 1.015625 -1.1875 C 0.953125 -1.28125 0.863281 -1.328125 0.75 -1.328125 C 0.632812 -1.328125 0.546875 -1.28125 0.484375 -1.1875 C 0.421875 -1.101562 0.390625 -0.96875 0.390625 -0.78125 C 0.390625 -0.59375 0.421875 -0.453125 0.484375 -0.359375 C 0.546875 -0.273438 0.632812 -0.234375 0.75 -0.234375 Z M 0.75 -0.234375 "/></g></g></g><g fill="#0a0a0a" fill-opacity="1"><g transform="translate(39.836809, 28.060624)"><g><path d="M 1.234375 -0.25 L 1.234375 0 L 0.078125 0 L 0.078125 -0.1875 L 0.703125 -0.78125 C 0.765625 -0.851562 0.804688 -0.910156 0.828125 -0.953125 C 0.859375 -1.003906 0.875 -1.054688 0.875 -1.109375 C 0.875 -1.179688 0.847656 -1.234375 0.796875 -1.265625 C 0.753906 -1.304688 0.6875 -1.328125 0.59375 -1.328125 C 0.425781 -1.328125 0.300781 -1.273438 0.21875 -1.171875 L 0.015625 -1.328125 C 0.078125 -1.410156 0.160156 -1.472656 0.265625 -1.515625 C 0.367188 -1.566406 0.484375 -1.59375 0.609375 -1.59375 C 0.773438 -1.59375 0.910156 -1.550781 1.015625 -1.46875 C 1.117188 -1.382812 1.171875 -1.273438 1.171875 -1.140625 C 1.171875 -1.054688 1.148438 -0.972656 1.109375 -0.890625 C 1.078125 -0.816406 1.007812 -0.734375 0.90625 -0.640625 L 0.5 -0.25 Z M 1.234375 -0.25 "/></g></g></g><g fill="#0a0a0a" fill-opacity="1"><g transform="translate(41.03335, 28.060624)"><g><path d="M 0.59375 -0.953125 C 0.8125 -0.953125 0.972656 -0.910156 1.078125 -0.828125 C 1.179688 -0.742188 1.234375 -0.628906 1.234375 -0.484375 C 1.234375 -0.390625 1.207031 -0.300781 1.15625 -0.21875 C 1.113281 -0.144531 1.046875 -0.0859375 0.953125 -0.046875 C 0.859375 -0.00390625 0.742188 0.015625 0.609375 0.015625 C 0.503906 0.015625 0.398438 0 0.296875 -0.03125 C 0.191406 -0.0625 0.101562 -0.101562 0.03125 -0.15625 L 0.15625 -0.390625 C 0.207031 -0.335938 0.273438 -0.296875 0.359375 -0.265625 C 0.441406 -0.242188 0.523438 -0.234375 0.609375 -0.234375 C 0.710938 -0.234375 0.789062 -0.253906 0.84375 -0.296875 C 0.90625 -0.335938 0.9375 -0.394531 0.9375 -0.46875 C 0.9375 -0.550781 0.90625 -0.613281 0.84375 -0.65625 C 0.78125 -0.695312 0.671875 -0.71875 0.515625 -0.71875 L 0.140625 -0.71875 L 0.21875 -1.5625 L 1.140625 -1.5625 L 1.140625 -1.328125 L 0.46875 -1.328125 L 0.4375 -0.953125 Z M 0.59375 -0.953125 "/></g></g></g></svg>