<svg width="25" height="22" viewBox="0 0 25 22" fill="none" xmlns="http://www.w3.org/2000/svg">
<path d="M12.2898 10.5417C11.6107 10.5417 10.9595 10.3002 10.4793 9.87046C9.99915 9.44069 9.7294 8.8578 9.7294 8.25001C9.7294 7.64223 9.99915 7.05934 10.4793 6.62957C10.9595 6.1998 11.6107 5.95836 12.2898 5.95836C12.9688 5.95836 13.6201 6.1998 14.1002 6.62957C14.5804 7.05934 14.8501 7.64223 14.8501 8.25001C14.8501 8.55096 14.7839 8.84895 14.6552 9.12699C14.5266 9.40503 14.338 9.65766 14.1002 9.87046C13.8625 10.0833 13.5802 10.2521 13.2696 10.3672C12.9589 10.4824 12.626 10.5417 12.2898 10.5417ZM12.2898 1.83337C10.3884 1.83337 8.56495 2.50941 7.22049 3.71276C5.87604 4.91612 5.12073 6.54821 5.12073 8.25001C5.12073 13.0625 12.2898 20.1666 12.2898 20.1666C12.2898 20.1666 19.4588 13.0625 19.4588 8.25001C19.4588 6.54821 18.7035 4.91612 17.359 3.71276C16.0146 2.50941 14.1911 1.83337 12.2898 1.83337Z" fill="#889E19"/>
</svg>
