<svg width="25" height="24" viewBox="0 0 25 24" fill="none" xmlns="http://www.w3.org/2000/svg">
<path d="M4.02211 20C3.46907 20 2.9958 19.8043 2.6023 19.413C2.2088 19.0217 2.01172 18.5507 2.01105 18V6C2.01105 5.45 2.20813 4.97933 2.6023 4.588C2.99647 4.19667 3.46974 4.00067 4.02211 4H20.1106C20.6637 4 21.1373 4.196 21.5315 4.588C21.9256 4.98 22.1224 5.45067 22.1217 6V18C22.1217 18.55 21.9249 19.021 21.5315 19.413C21.138 19.805 20.6643 20.0007 20.1106 20H4.02211ZM12.0664 13L20.1106 8V6L12.0664 11L4.02211 6V8L12.0664 13Z" fill="#889E19"/>
</svg>
