<svg width="25" height="24" viewBox="0 0 25 24" fill="none" xmlns="http://www.w3.org/2000/svg">
<path d="M6.65663 10.79C8.1046 13.62 10.4374 15.93 13.2831 17.38L15.4953 15.18C15.7668 14.91 16.169 14.82 16.5209 14.94C17.6471 15.31 18.8638 15.51 20.1107 15.51C20.6637 15.51 21.1162 15.96 21.1162 16.51V20C21.1162 20.55 20.6637 21 20.1107 21C10.6687 21 3.0166 13.39 3.0166 4C3.0166 3.45 3.46909 3 4.02213 3H7.5415C8.09454 3 8.54703 3.45 8.54703 4C8.54703 5.25 8.74814 6.45 9.12018 7.57C9.23079 7.92 9.15035 8.31 8.8688 8.59L6.65663 10.79Z" fill="#889E19"/>
</svg>
